<?xml version="1.0" encoding="utf-8"?>
<!-- Generator: Adobe Illustrator 25.4.1, SVG Export Plug-In . SVG Version: 6.00 Build 0)  -->
<svg version="1.1" id="Layer_1" xmlns="http://www.w3.org/2000/svg" xmlns:xlink="http://www.w3.org/1999/xlink" x="0px" y="0px"
	 width="130" height="60" viewBox="0 0 500 460" style="enable-background:new 0 0 500 460;" xml:space="preserve">
<style type="text/css">
	.st0{fill-rule:evenodd;clip-rule:evenodd;fill:url(#SVGID_1_);}
	.st1{fill-rule:evenodd;clip-rule:evenodd;fill:#FFFFFF;}
</style>
<g>
	<linearGradient id="SVGID_1_" gradientUnits="userSpaceOnUse" x1="258.3948" y1="336.6966" x2="254.9576" y2="-73.9185">
		<stop  offset="0" style="stop-color:#EC298E"/>
		<stop  offset="0.5" style="stop-color:#ED2F2A"/>
		<stop  offset="1" style="stop-color:#FAA919"/>
	</linearGradient>
	<path class="st0" d="M260.2,147.5l-33.8-34.2l54.8-54.1l35.7-8.7l-63.8,63l33.8,34.2l-54.8,54.1l-35.7,8.7L260.2,147.5L260.2,147.5
		z M225.9,3.8c-69.7,16.9-112.9,87.8-96,157.5v0c11.8,48.5,49.6,84.1,95.1,95.6l12.1-12l0,0l98.2-96.9l-47-47.8l-13.5,13.3
		l33.7,34.3l-88.1,87c-34.3-12-62-40.5-71.2-78.2l0,0C135,97.5,171.5,37.5,230.6,23.1l0,0c6.6-1.6,13.1-2.6,19.6-2.9l19.6-19.4
		C255.5-0.7,240.7,0.2,225.9,3.8L225.9,3.8L225.9,3.8z M204.8,113.2l88.1-87c34.3,12,62,40.5,71.2,78.2v0
		c14.3,59.1-22.3,119.1-81.3,133.4h0c-6.6,1.6-13.1,2.6-19.6,2.9l-19.7,19.4c14.4,1.5,29.2,0.6,44-3h0
		c69.7-16.9,112.9-87.8,96-157.5l0,0c-11.8-48.5-49.6-84.1-95.1-95.6L277,15.3l-5.8,5.7L178,113l47.1,47.6l13.5-13.3L204.8,113.2z"
		/>
	<g>
		<path class="st1" d="M0,419c6.8,3.7,20.3,7.5,34.1,7.5c33,0,48.6-17.3,48.6-37.5c0-17-10-28-31.2-35.9c-15.5-5.9-22.3-9.3-22.3-17
			c0-6.2,5.7-11.6,17.5-11.6c11.8,0,20.4,3.4,25.2,5.7l6.1-22c-7.1-3.2-17.1-5.9-30.7-5.9c-28.4,0-45.5,15.5-45.5,36.1
			c0,17.5,13,28.6,33,35.5c14.5,5.2,20.2,9.5,20.2,17c0,7.9-6.6,13-19.1,13c-11.6,0-22.8-3.7-30.2-7.5L0,419z"/>
		<path class="st1" d="M88.5,337.2l25.3,87.3h25.5l8.7-30.7c2.3-8,4.1-16.2,5.7-27.1h0.4c1.8,10.9,3.4,18.6,5.5,27.1l8.2,30.7h25.5
			l26.8-87.3h-26.6l-7.5,34.6c-2,10-3.7,19.8-5,29.8h-0.4c-1.8-10-4.1-19.8-6.4-29.6l-8.7-34.8h-21.4l-9.3,35.9
			c-2.1,8.6-4.6,18.6-6.4,28.6h-0.4c-1.4-10-3.2-19.8-5-28.7l-7-35.7H88.5z"/>
		<path class="st1" d="M304.5,373c0-20.5-9.3-37.7-38.4-37.7c-15.9,0-27.8,4.3-33.9,7.7l5,17.5c5.7-3.6,15.2-6.6,24.1-6.6
			c13.4,0,15.9,6.6,15.9,11.2v1.2c-30.9-0.2-51.2,10.7-51.2,33.4c0,13.9,10.5,26.8,28.2,26.8c10.4,0,19.3-3.7,25-10.7h0.5l1.6,8.7
			h24.5c-0.9-4.8-1.2-12.9-1.2-21.2V373L304.5,373z M278.1,392.8c0,1.6-0.2,3.2-0.5,4.6c-1.8,5.5-7.3,10-14.1,10
			c-6.1,0-10.7-3.4-10.7-10.4c0-10.5,11.1-13.9,25.3-13.7V392.8z"/>
		<path class="st1" d="M326,459.9h27.1v-43.4h0.4c3.9,5.7,12.1,10,22.7,10c19.5,0,39.6-15,39.6-46.8c0-27.8-17.1-44.4-36.2-44.4
			c-12.7,0-22.7,4.8-29.1,14.1h-0.4l-1.2-12.1h-23.6c0.4,8,0.7,17.9,0.7,29.3V459.9L326,459.9z M353.1,375.1c0-1.6,0.2-3.4,0.5-4.8
			c1.8-8,8.6-13.7,16.2-13.7c12.1,0,18.4,10.5,18.4,24.5c0,14.8-7,24.6-18.7,24.6c-7.9,0-14.1-5.5-15.9-12.9
			c-0.4-1.6-0.5-3.6-0.5-5.7V375.1z"/>
		<path class="st1" d="M424.1,424.5H500v-21.6h-41.9v-0.4c5-4.8,9.5-10.4,14.3-16.1l26.2-33v-16.2h-71.4v21.4h38.4v0.4
			c-5,5.4-8.9,9.6-13.9,15.5L424.1,409V424.5z"/>
	</g>
</g>
</svg>
